<?xml version="1.0" encoding="UTF-8"?>
<svg xmlns="http://www.w3.org/2000/svg" version="1.1" viewBox="0 0 5000 5000">
  <defs>
    <style>
      .cls-1 {
        fill: #4a3012;
      }

      .cls-2 {
        fill: #3a240e;
      }
    </style>
  </defs>
  <!-- Generator: Adobe Illustrator 28.7.0, SVG Export Plug-In . SVG Version: 1.2.0 Build 136)  -->
  <g>
    <g id="_Ñëîé_1" data-name="Ñëîé_1">
      <g>
        <path class="cls-1" d="M2650.94,4267.97c.19,17.38,1.05,28.75-6.43,38.59-9.72,12.79-27.14,14.59-34.73,15.44-105.02,11.73-121.74,41.27-169.79,20.58-50.32-21.67-71.97-71.31-78.47-86.17-6.02-13.81-21.63-49.58-12.85-91.33,7.34-34.95,24.69-40.37,41.15-73.32,17.48-34.95,12.47-57.9,7.72-169.79-2.63-62.09-4-94.5-3.86-137.63.46-129.33,13.88-134.15-1.29-174.93-11.24-30.25-29.53-56.92-24.44-97.75,1.66-13.24,4-13.82,11.58-45.02,3.58-14.72,11.95-49.59,15.44-86.18,4.14-43.32.27-76.83-2.57-100.33-2.1-17.36-4.53-30.57-27.01-124.76-17.25-72.27-20.95-86.01-14.14-105.47,11.45-32.74,42.13-51.55,64.31-61.74-.04-1.11-.08-2.21-.12-3.31-2.38-66.9-2.65-121.39-2.45-158.76.33-64.24,2.03-79.41,2.57-165.93.34-54.07-.27-56.44,0-129.91.27-70.3.39-105.45,1.29-137.64,2.64-95.02,7.42-103.45,9-194.22,1.19-68.05,1.67-102.66-3.86-131.21-10.47-54.06-24.84-66.83-16.72-99.04,10.47-41.5,45.01-62.65,34.73-90.04-4.83-12.85-16.89-20.05-15.44-36.01.74-8.09,4.24-10.78,9-23.15,4.97-12.94,6.18-23.13,7.72-36.02,5.07-42.66-2.57-118.33-2.57-118.33-3.38-33.42,1.63-22.26,5.15-129.92,1.04-31.82,2.86-89.83,1.29-162.07-1.83-84.1-5.87-78.28-5.15-137.63.75-61.03,5.04-69.22-2.57-95.18-9.49-32.38-26.6-55.17-15.44-75.89,6.32-11.72,16.38-12.92,23.1-28.92,6.42-15.3,3.78-29.81,2.62-36.68-6.13-36.45-3.69-73.88-7.72-110.62-4.86-44.37-7.98-72.74-7.72-109.33.45-62.14,9.96-57.09,7.72-102.91-2.95-60.25-20.04-81.83-3.86-117.05,7.07-15.39,22.6-37.96,37.3-36.02,2.32.31,7.88,1.66,16.92,14.68,15.53,22.39,18.25,46.04,18.95,52.82,6.46,62.24,6.58,90.71,6.58,90.71,0,0,.19,46.59,1.29,91.33,1.41,57.72,4.61,62.9,7.72,131.2,1.04,22.84,2.79,62.45,2.57,113.19-.39,89.16-6.35,94.65,0,136.35,5.38,35.34,11.77,45.31,14.14,83.6,1.54,24.94-.06,38.53-2.57,78.47,0,0-3.24,51.66-5.15,114.47-1.86,61.68-2.72,93.39,1.29,136.34,3.76,40.35,6.89,38.37,10.29,77.18,3.23,36.86,1.93,55.87,0,127.34-2.02,75.37-3.04,113.06-2.57,149.21.92,69.96,4.32,68.64,2.57,113.2-1.56,39.89-4.95,57.61-1.29,92.61,3.72,35.5,9.71,41.06,14.15,72.03,5.94,41.37-1.29,55.45-6.43,120.91-2.62,33.51-2.61,68.65-2.57,138.91.05,82.86,2.88,75.22,1.29,119.62-2.98,83.21-12.08,86.96-6.43,133.78,4.51,37.32,12.23,50.92,11.11,89.87-.87,29.98-5.99,40.75-9.82,70.91-3.3,26.08-5.28,63.94,2.1,111.76.75.62,1.53,1.28,2.34,1.97,16.61,14.21,46.1,43.75,61.98,90.65,2.88,8.52,12.01,37.41,10.29,77.19-2.35,54.49-23.02,82.26-38.59,123.5-10.8,28.58-12.34,85.09-15.44,198.11-2.63,95.96-3.94,143.95,3.04,187.86,7.98,50.09,16.46,64.13,16.72,109.33.36,62.09-15.46,67.93-11.58,122.2,3.64,50.84,18.21,55.01,23.15,117.05,4.27,53.53-6.47,51.59,1.29,82.32,13.89,55.05,47.83,59.11,52.74,110.62,1.88,19.71-3.07,19.34-2.57,64.31Z"/>
        <path class="cls-2" d="M2650.94,4267.97c.19,17.38,1.05,28.75-6.43,38.59-9.72,12.79-27.14,14.59-34.73,15.44-105.02,11.73-121.74,41.27-169.79,20.58-50.32-21.67-71.97-71.31-78.47-86.17-6.02-13.81-21.63-49.58-12.85-91.33,7.34-34.95,24.69-40.37,41.15-73.32,17.48-34.95,12.47-57.9,7.72-169.79-2.63-62.09-4-94.5-3.86-137.63.46-129.33,13.88-134.15-1.29-174.93-11.24-30.25-29.53-56.92-24.44-97.75,1.66-13.24,4-13.82,11.58-45.02,3.58-14.72,11.95-49.59,15.44-86.18,4.14-43.32.27-76.83-2.57-100.33-2.1-17.36-4.53-30.57-27.01-124.76-17.25-72.27-20.95-86.01-14.14-105.47,11.45-32.74,42.13-51.55,64.31-61.74-.04-1.11-.08-2.21-.12-3.31h134.47c16.61,14.21,46.1,43.75,61.98,90.65,2.88,8.52,12.01,37.41,10.29,77.19-2.35,54.49-23.02,82.26-38.59,123.5-10.8,28.58-12.34,85.09-15.44,198.11-2.63,95.96-3.94,143.95,3.04,187.86,7.98,50.09,16.46,64.13,16.72,109.33.36,62.09-15.46,67.93-11.58,122.2,3.64,50.84,18.21,55.01,23.15,117.05,4.27,53.53-6.47,51.59,1.29,82.32,13.89,55.05,47.83,59.11,52.74,110.62,1.88,19.71-3.07,19.34-2.57,64.31Z"/>
      </g>
    </g>
  </g>
</svg>